<svg width="30" height="31" viewBox="0 0 30 31" fill="none" xmlns="http://www.w3.org/2000/svg">
<path d="M26.125 15.0308C26.7305 15.4445 27.2703 15.9137 27.7446 16.4385C28.2189 16.9632 28.6276 17.5384 28.9707 18.1641C29.3138 18.7897 29.5661 19.4507 29.7275 20.147C29.889 20.8433 29.9798 21.5547 30 22.2812C30 23.4821 29.7729 24.6123 29.3188 25.6719C28.8647 26.7314 28.2391 27.6548 27.4419 28.4419C26.6447 29.229 25.7214 29.8496 24.6719 30.3037C23.6224 30.7578 22.4922 30.9899 21.2812 31C20.363 31 19.4749 30.8638 18.6172 30.5913C17.7594 30.3188 16.9723 29.9253 16.2559 29.4106C15.5394 28.896 14.9036 28.2804 14.3486 27.564C13.7936 26.8475 13.3647 26.0553 13.062 25.1875H0.9375V1.9375H4.8125V0H6.75V1.9375H20.3125V0H22.25V1.9375H26.125V15.0308ZM2.875 3.875V7.75H24.1875V3.875H22.25V5.8125H20.3125V3.875H6.75V5.8125H4.8125V3.875H2.875ZM12.6079 23.25C12.5776 22.9372 12.5625 22.6143 12.5625 22.2812C12.5625 21.0804 12.7896 19.9502 13.2437 18.8906C13.6978 17.8311 14.3234 16.9077 15.1206 16.1206C15.9178 15.3335 16.8411 14.7129 17.8906 14.2588C18.9401 13.8047 20.0703 13.5726 21.2812 13.5625C22.2904 13.5625 23.2591 13.729 24.1875 14.062V9.6875H2.875V23.25H12.6079ZM21.2812 29.0625C22.2197 29.0625 23.0977 28.8859 23.915 28.5327C24.7324 28.1795 25.4489 27.6952 26.0645 27.0796C26.68 26.464 27.1644 25.7476 27.5176 24.9302C27.8708 24.1128 28.0524 23.2298 28.0625 22.2812C28.0625 21.3428 27.8859 20.4648 27.5327 19.6475C27.1795 18.8301 26.6952 18.1136 26.0796 17.498C25.464 16.8825 24.7476 16.3981 23.9302 16.0449C23.1128 15.6917 22.2298 15.5101 21.2812 15.5C20.3428 15.5 19.4648 15.6766 18.6475 16.0298C17.8301 16.383 17.1136 16.8673 16.498 17.4829C15.8825 18.0985 15.3981 18.8149 15.0449 19.6323C14.6917 20.4497 14.5101 21.3327 14.5 22.2812C14.5 23.2197 14.6766 24.0977 15.0298 24.915C15.383 25.7324 15.8674 26.4489 16.4829 27.0645C17.0985 27.68 17.8149 28.1644 18.6323 28.5176C19.4497 28.8708 20.3327 29.0524 21.2812 29.0625ZM22.25 21.3125H25.1562V23.25H20.3125V17.4375H22.25V21.3125Z" fill="black"/>
</svg>
