<svg width="43" height="43" viewBox="0 0 43 43" fill="none" xmlns="http://www.w3.org/2000/svg">
<g clip-path="url(#clip0_1_62)">
<path d="M7 34C7 31.3478 7.76384 28.8043 9.12348 26.9289C10.4831 25.0536 12.3272 24 14.25 24H28.75C30.6728 24 32.5169 25.0536 33.8765 26.9289C35.2362 28.8043 36 31.3478 36 34C36 35.3261 35.6181 36.5979 34.9383 37.5355C34.2584 38.4732 33.3364 39 32.375 39H10.625C9.66359 39 8.74156 38.4732 8.06174 37.5355C7.38192 36.5979 7 35.3261 7 34Z" stroke="#F8F8F8" stroke-width="3" stroke-linejoin="round"/>
<path d="M21.5 20C26.1944 20 30 16.1944 30 11.5C30 6.80558 26.1944 3 21.5 3C16.8056 3 13 6.80558 13 11.5C13 16.1944 16.8056 20 21.5 20Z" stroke="#F8F8F8" stroke-width="3"/>
</g>
<defs>
<clipPath id="clip0_1_62">
<rect width="43" height="43" fill="white"/>
</clipPath>
</defs>
</svg>
