<svg width="20" height="24" viewBox="0 0 20 24" fill="none" xmlns="http://www.w3.org/2000/svg">
<path d="M12.1875 15C14.1766 15 16.0843 14.2098 17.4908 12.8033C18.8973 11.3968 19.6875 9.48912 19.6875 7.5C19.6875 5.51088 18.8973 3.60322 17.4908 2.1967C16.0843 0.790176 14.1766 0 12.1875 0H5.15625C4.78329 0 4.4256 0.148158 4.16188 0.411881C3.89816 0.675604 3.75 1.03329 3.75 1.40625V12.1875H1.40625C1.03329 12.1875 0.675604 12.3357 0.411881 12.5994C0.148158 12.8631 0 13.2208 0 13.5938C0 13.9667 0.148158 14.3244 0.411881 14.5881C0.675604 14.8518 1.03329 15 1.40625 15H3.75V16.875H1.40625C1.03329 16.875 0.675604 17.0232 0.411881 17.2869C0.148158 17.5506 0 17.9083 0 18.2812C0 18.6542 0.148158 19.0119 0.411881 19.2756C0.675604 19.5393 1.03329 19.6875 1.40625 19.6875H3.75V22.0312C3.75 22.4042 3.89816 22.7619 4.16188 23.0256C4.4256 23.2893 4.78329 23.4375 5.15625 23.4375C5.52921 23.4375 5.8869 23.2893 6.15062 23.0256C6.41434 22.7619 6.5625 22.4042 6.5625 22.0312V19.6875H11.7188C12.0917 19.6875 12.4494 19.5393 12.7131 19.2756C12.9768 19.0119 13.125 18.6542 13.125 18.2812C13.125 17.9083 12.9768 17.5506 12.7131 17.2869C12.4494 17.0232 12.0917 16.875 11.7188 16.875H6.5625V15H12.1875ZM6.5625 2.8125H12.1875C13.4307 2.8125 14.623 3.30636 15.5021 4.18544C16.3811 5.06451 16.875 6.2568 16.875 7.5C16.875 8.7432 16.3811 9.93549 15.5021 10.8146C14.623 11.6936 13.4307 12.1875 12.1875 12.1875H6.5625V2.8125Z" fill="#F8F8F8"/>
</svg>
