<svg width="47" height="45" viewBox="0 0 47 45" fill="none" xmlns="http://www.w3.org/2000/svg">
<path d="M10.75 17.25H19.25" stroke="#F8F8F8" stroke-width="3" stroke-linecap="round" stroke-linejoin="round"/>
<path d="M44.7457 22.5625C44.7457 22.3989 44.75 21.4299 44.7457 21.3619C44.6692 20.2973 43.7576 19.4494 42.6101 19.3792C42.5358 19.375 42.4486 19.375 42.2701 19.375H36.7409C32.9478 19.375 29.875 22.2289 29.875 25.75C29.875 29.2711 32.9499 32.125 36.7387 32.125H42.2701C42.4486 32.125 42.5358 32.125 42.6101 32.1207C43.7576 32.0506 44.6714 31.2028 44.7457 30.1381C44.75 30.0701 44.75 29.1011 44.75 28.9375" stroke="#F8F8F8" stroke-width="3" stroke-linecap="round"/>
<path d="M36.25 27.875C37.4236 27.875 38.375 26.9236 38.375 25.75C38.375 24.5764 37.4236 23.625 36.25 23.625C35.0764 23.625 34.125 24.5764 34.125 25.75C34.125 26.9236 35.0764 27.875 36.25 27.875Z" fill="#F8F8F8"/>
<path d="M19.25 42.75H25.625C33.6384 42.75 37.6461 42.75 40.1345 40.2595C41.8536 38.5425 42.387 36.103 42.5506 32.125M42.5506 19.375C42.3849 15.397 41.8536 12.9575 40.1345 11.2405C37.6461 8.74999 33.6384 8.74999 25.625 8.74999H19.25C11.2366 8.74999 7.22887 8.74999 4.7405 11.2405C2.25 13.7289 2.25 17.7366 2.25 25.75C2.25 33.7634 2.25 37.7711 4.7405 40.2595C6.12812 41.6492 7.9875 42.2634 10.75 42.5332M10.75 8.74999L18.6869 3.48636C19.8031 2.76033 21.106 2.37387 22.4375 2.37387C23.769 2.37387 25.0719 2.76033 26.1881 3.48636L34.125 8.74999" stroke="#F8F8F8" stroke-width="3" stroke-linecap="round"/>
</svg>
