<svg width="48" height="54" viewBox="0 0 48 54" fill="none" xmlns="http://www.w3.org/2000/svg">
<path d="M24 20.5H21.8182C21.2395 20.5 20.6846 20.7283 20.2754 21.1346C19.8662 21.5409 19.6364 22.092 19.6364 22.6667V23.4792C19.6364 23.948 19.7895 24.4041 20.0727 24.7792C20.356 25.1542 20.7541 25.4279 21.2073 25.5592L26.7927 27.1777C27.2459 27.3089 27.644 27.5826 27.9273 27.9577C28.2105 28.3327 28.3636 28.7889 28.3636 29.2577V31.3333C28.3636 31.908 28.1338 32.4591 27.7246 32.8654C27.3154 33.2717 26.7605 33.5 26.1818 33.5H24M24 20.5H26.1818C26.7605 20.5 27.3154 20.7283 27.7246 21.1346C28.1338 21.5409 28.3636 22.092 28.3636 22.6667V23.75M24 20.5V17.25M24 33.5H21.8182C21.2395 33.5 20.6846 33.2717 20.2754 32.8654C19.8662 32.4591 19.6364 31.908 19.6364 31.3333V30.25M24 33.5V36.75M0 7.5H26.1818C30.8111 7.5 35.2507 9.32619 38.524 12.5768C41.7974 15.8274 43.6364 20.2362 43.6364 24.8333M0 7.5C0.894545 7.5 2.16 6.96483 3.07636 6.41017C4.29471 5.65917 5.37132 4.70224 6.25745 3.58267C6.95127 2.716 7.63636 1.689 7.63636 1M0 7.5C0.894545 7.5 2.16 8.03517 3.07636 8.58983C4.29452 9.34108 5.37109 10.298 6.25745 11.4173C6.95127 12.284 7.63636 13.311 7.63636 14M48 46.5H21.8182C17.1889 46.5 12.7493 44.6738 9.47595 41.4232C6.20259 38.1726 4.36364 33.7638 4.36364 29.1667M48 46.5C47.1055 46.5 45.84 47.0352 44.9236 47.5898C43.7054 48.3409 42.6288 49.2979 41.7425 50.4173C41.0487 51.284 40.3636 52.311 40.3636 53M48 46.5C47.1055 46.5 45.84 45.9648 44.9236 45.4102C43.7054 44.6591 42.6288 43.7021 41.7425 42.5827C41.0487 41.716 40.3636 40.689 40.3636 40M37.0909 27C37.0909 23.5522 35.7117 20.2456 33.2567 17.8076C30.8017 15.3696 27.4719 14 24 14C20.5281 14 17.1984 15.3696 14.7433 17.8076C12.2883 20.2456 10.9091 23.5522 10.9091 27C10.9091 30.4478 12.2883 33.7544 14.7433 36.1924C17.1984 38.6304 20.5281 40 24 40C27.4719 40 30.8017 38.6304 33.2567 36.1924C35.7117 33.7544 37.0909 30.4478 37.0909 27Z" stroke="white" stroke-width="3"/>
</svg>
